<?xml version="1.0" standalone="no"?>
<!DOCTYPE svg PUBLIC "-//W3C//DTD SVG 20010904//EN" "http://www.w3.org/TR/2001/REC-SVG-20010904/DTD/svg10.dtd">
<svg xmlns="http://www.w3.org/2000/svg" version="1.0" width="436.000000pt" height="430.000000pt" viewBox="0 0 436.000000 430.000000" preserveAspectRatio="xMidYMid meet">
<metadata>
Created by potrace 1.16, written by Peter Selinger 2001-2019
<meta name="Producer" content="Online-Convert"/></metadata>
<g transform="translate(0.000000,430.000000) scale(0.100000,-0.100000)" fill="#000000" stroke="none">
<path d="M0 2150 l0 -2150 2180 0 2180 0 0 2150 0 2150 -2180 0 -2180 0 0 -2150z m1207 1752 c-27 -29 -73 -142 -91 -219 -21 -92 -21 -270 0 -386 119 -681 841 -1448 1600 -1700 196 -65 289 -81 469 -82 178 0 276 19 393 76 l77 37 -66 -63 c-338 -320 -1052 -210 -1679 259 -480 358 -826 852 -927 1319 -13 57 -18 125 -18 227 0 124 4 156 24 220 41 132 96 222 185 301 41 37 63 44 33 11z m2033 -807 c16 -9 32 -25 35 -38 3 -12 4 -281 3 -597 l-3 -575 -500 -3 -500 -2 -85 57 -85 58 525 3 c469 2 526 4 542 19 17 15 18 45 17 488 0 404 -2 475 -15 494 l-15 21 -944 0 -943 0 -15 45 -16 45 985 0 c861 0 989 -2 1014 -15z m-942 -410 c33 -27 61 -57 61 -66 1 -22 -35 -53 -51 -43 -7 4 -10 3 -5 -1 7 -9 -20 -45 -35 -45 -4 0 -8 9 -8 19 0 11 -4 23 -10 26 -5 3 -10 17 -10 31 0 29 -16 64 -30 64 -5 0 -12 -20 -16 -45 -3 -25 -10 -48 -16 -51 -5 -3 -6 -14 -3 -25 4 -13 2 -19 -8 -19 -16 0 -50 34 -41 42 3 3 0 9 -7 14 -8 4 -10 3 -5 -4 4 -7 4 -12 0 -12 -13 0 -44 33 -44 46 0 21 139 136 154 127 7 -5 40 -30 74 -58z m141 -121 c17 -14 28 -31 24 -36 -3 -7 -1 -8 5 -4 15 9 82 -52 76 -68 -8 -22 -132 -116 -152 -116 -10 0 -27 9 -38 21 -18 20 -18 21 13 50 18 16 41 29 53 29 11 0 23 7 27 15 8 22 -4 30 -21 16 -11 -9 -16 -9 -21 0 -4 6 -1 15 6 20 7 4 11 11 7 14 -10 10 -38 -9 -51 -35 -7 -13 -24 -32 -39 -43 l-28 -21 -25 24 c-14 13 -24 30 -23 37 4 16 129 122 145 123 6 0 25 -12 42 -26z m-592 -777 c32 -24 87 -64 122 -90 l65 -47 -493 0 c-440 0 -497 2 -528 17 -47 22 -93 86 -93 130 l0 33 435 0 435 0 57 -43z m1637 6 c-18 -79 -74 -128 -157 -138 -29 -4 -173 -5 -322 -3 l-270 4 -85 36 c-155 65 -227 102 -205 106 11 2 24 8 30 13 5 5 226 9 512 9 l503 0 -6 -27z m-132 -694 l3 -111 62 56 c57 52 65 56 111 56 l50 0 -61 -59 -60 -58 67 -79 68 -79 -49 -3 c-47 -3 -49 -3 -98 53 l-50 56 -23 -24 c-13 -14 -22 -36 -22 -55 0 -31 -2 -32 -40 -32 l-40 0 0 195 0 195 40 0 39 0 3 -111z m-2238 77 c70 -29 96 -107 60 -177 -21 -42 -68 -59 -164 -59 l-80 0 0 -60 c0 -56 -2 -60 -23 -60 l-22 0 0 185 0 185 98 0 c60 0 110 -5 131 -14z m1334 -43 c3 -30 6 -33 38 -33 31 0 34 -2 34 -30 0 -28 -3 -30 -35 -30 l-36 0 3 -77 3 -78 37 1 c31 1 37 -3 43 -24 8 -32 -7 -42 -67 -42 -34 0 -54 6 -73 23 -23 20 -26 30 -30 107 -4 76 -6 85 -25 88 -15 3 -20 11 -20 33 0 24 4 29 24 29 21 0 24 4 22 28 -5 38 1 44 42 40 34 -3 37 -6 40 -35z m361 -47 c36 -19 59 -54 67 -105 l7 -41 -117 0 c-65 0 -116 -4 -116 -9 0 -19 53 -51 84 -51 17 0 43 6 58 14 24 13 28 12 47 -10 l21 -24 -32 -20 c-41 -25 -135 -27 -184 -4 -47 23 -74 70 -74 132 0 43 5 57 30 85 16 19 44 39 62 45 40 13 108 8 147 -12z m341 8 c34 -14 60 -38 60 -57 0 -3 -14 -10 -30 -17 -26 -11 -33 -10 -49 4 -22 20 -70 21 -98 1 -46 -32 -36 -113 16 -135 31 -12 74 -5 92 16 9 11 15 11 40 -2 35 -18 36 -24 4 -54 -30 -28 -114 -38 -167 -21 -105 35 -133 180 -46 242 56 40 115 48 178 23z m-1850 -14 c0 -24 8 -25 30 -5 10 9 34 19 55 22 32 5 37 4 33 -13 -2 -12 -15 -21 -38 -25 -58 -12 -70 -37 -70 -145 0 -94 0 -94 -25 -94 l-25 0 0 140 c0 133 1 140 20 140 13 0 20 -7 20 -20z m377 3 c97 -46 98 -199 2 -249 -51 -26 -141 -16 -179 21 -125 119 18 304 177 228z m357 -8 l36 -24 0 24 c0 18 5 25 20 25 19 0 20 -7 20 -132 0 -73 -5 -150 -10 -170 -19 -68 -103 -102 -197 -79 -63 16 -90 35 -74 54 10 13 17 12 49 -5 27 -14 51 -18 91 -15 64 5 91 30 91 83 l0 34 -32 -20 c-65 -39 -163 -18 -203 43 -81 125 83 268 209 182z"/>
<path d="M930 1065 l0 -95 65 0 c106 0 155 31 155 97 -1 62 -55 92 -167 93 l-53 0 0 -95z"/>
<path d="M1583 1062 c-37 -4 -79 -42 -86 -78 -21 -111 111 -178 186 -94 68 76 7 183 -100 172z"/>
<path d="M1913 1059 c-42 -12 -63 -44 -63 -95 0 -67 45 -101 125 -95 36 3 64 23 80 58 40 83 -44 161 -142 132z"/>
</g>
</svg>
